<svg xmlns="http://www.w3.org/2000/svg" viewBox="0 0 600 300" role="img" aria-label="Official Selection — Bitcoin FilmFest 2026, Warsaw">
  <defs>
    <path id="leaf" d="M0 0 C 5.5 -9 6.5 -21 0 -34 C -6.5 -21 -5.5 -9 0 0 Z"/>
    <g id="branch">
      <path d="M337.9 275.7 L319.3 277.4 L300.5 278.0 L281.8 277.5 L263.1 275.8 L244.8 273.1 L226.9 269.3 L209.5 264.5 L192.8 258.6 L176.8 251.8 L161.8 244.0 L147.8 235.4 L135.0 226.0 L123.3 215.9 L113.0 205.1 L104.1 193.8 L96.6 181.9 L90.6 169.7 L86.2 157.1 L83.3 144.4 L82.1 131.5 L82.4 118.6 L84.4 105.7 L88.0 93.1 L93.1 80.7 L99.8 68.6 L108.0 57.0 L117.6 45.9 L128.5 35.4 L140.7 25.6 L154.1 16.5" fill="none" stroke="#FFFFFF" stroke-width="2.5" stroke-linecap="round"/>
      <use href="#leaf" transform="translate(337.9 275.7) rotate(-122.9) scale(1.05)"/>
      <use href="#leaf" transform="translate(300.5 278.0) rotate(-64.1) scale(1.02)"/>
      <use href="#leaf" transform="translate(263.1 275.8) rotate(-109.3) scale(0.99)"/>
      <use href="#leaf" transform="translate(226.9 269.3) rotate(-50.2) scale(0.96)"/>
      <use href="#leaf" transform="translate(192.8 258.6) rotate(-94.8) scale(0.93)"/>
      <use href="#leaf" transform="translate(161.8 244.0) rotate(-34.6) scale(0.90)"/>
      <use href="#leaf" transform="translate(135.0 226.0) rotate(-77.4) scale(0.87)"/>
      <use href="#leaf" transform="translate(113.0 205.1) rotate(-15.1) scale(0.84)"/>
      <use href="#leaf" transform="translate(96.6 181.9) rotate(-55.2) scale(0.81)"/>
      <use href="#leaf" transform="translate(86.2 157.1) rotate(9.9) scale(0.78)"/>
      <use href="#leaf" transform="translate(82.1 131.5) rotate(-27.9) scale(0.75)"/>
      <use href="#leaf" transform="translate(84.4 105.7) rotate(38.3) scale(0.72)"/>
      <use href="#leaf" transform="translate(93.1 80.7) rotate(-0.2) scale(0.69)"/>
      <use href="#leaf" transform="translate(108.0 57.0) rotate(64.0) scale(0.66)"/>
      <use href="#leaf" transform="translate(128.5 35.4) rotate(22.8) scale(0.63)"/>
      <use href="#leaf" transform="translate(154.1 16.5) rotate(58.2) scale(0.60)"/>
    </g>
  </defs>
  <g fill="#FFFFFF">
    <use href="#branch"/>
    <use href="#branch" transform="translate(600 0) scale(-1 1)"/>
  </g>
  <g fill="#FFFFFF" text-anchor="middle" font-family="'Space Mono','Courier New',monospace">
    <text x="300" y="106" font-size="20" letter-spacing="5">OFFICIAL SELECTION</text>
    <text x="300" y="152" font-size="30" font-weight="700" letter-spacing="1">BITCOIN FILMFEST</text>
    <text x="300" y="194" font-size="19" letter-spacing="6">2026 · WARSAW</text>
  </g>
</svg>
