<svg xmlns="http://www.w3.org/2000/svg" viewBox="0 0 600 300" role="img" aria-label="Official Selection — Bitcoin FilmFest 2026, Warsaw" shape-rendering="crispEdges">
  <defs>
    <g id="branch">
      <rect x="160" y="0" width="10" height="10"/>
      <rect x="180" y="0" width="10" height="10"/>
      <rect x="140" y="10" width="20" height="10"/>
      <rect x="110" y="20" width="40" height="10"/>
      <rect x="110" y="30" width="30" height="10"/>
      <rect x="110" y="40" width="30" height="10"/>
      <rect x="70" y="50" width="10" height="10"/>
      <rect x="90" y="50" width="30" height="10"/>
      <rect x="80" y="60" width="40" height="10"/>
      <rect x="90" y="70" width="30" height="10"/>
      <rect x="80" y="80" width="20" height="10"/>
      <rect x="60" y="90" width="50" height="10"/>
      <rect x="70" y="100" width="30" height="10"/>
      <rect x="80" y="110" width="10" height="10"/>
      <rect x="80" y="120" width="10" height="10"/>
      <rect x="80" y="130" width="10" height="10"/>
      <rect x="80" y="140" width="30" height="10"/>
      <rect x="70" y="150" width="30" height="10"/>
      <rect x="60" y="160" width="40" height="10"/>
      <rect x="90" y="170" width="20" height="10"/>
      <rect x="120" y="170" width="10" height="10"/>
      <rect x="80" y="180" width="40" height="10"/>
      <rect x="80" y="190" width="30" height="10"/>
      <rect x="100" y="200" width="30" height="10"/>
      <rect x="100" y="210" width="30" height="10"/>
      <rect x="100" y="220" width="60" height="10"/>
      <rect x="140" y="230" width="20" height="10"/>
      <rect x="190" y="230" width="10" height="10"/>
      <rect x="130" y="240" width="10" height="10"/>
      <rect x="150" y="240" width="50" height="10"/>
      <rect x="140" y="250" width="10" height="10"/>
      <rect x="170" y="250" width="30" height="10"/>
      <rect x="230" y="250" width="10" height="10"/>
      <rect x="130" y="260" width="10" height="10"/>
      <rect x="170" y="260" width="70" height="10"/>
      <rect x="170" y="270" width="10" height="10"/>
      <rect x="230" y="270" width="80" height="10"/>
      <rect x="210" y="280" width="20" height="10"/>
      <rect x="210" y="290" width="10" height="10"/>
    </g>
  </defs>
  <g fill="#FFFFFF">
    <use href="#branch"/>
    <use href="#branch" transform="translate(600 0) scale(-1 1)"/>
  </g>
  <g fill="#FFFFFF" text-anchor="middle" font-family="'Space Mono','Courier New',monospace">
    <text x="300" y="106" font-size="20" letter-spacing="5">OFFICIAL SELECTION</text>
    <text x="300" y="152" font-size="30" font-weight="700" letter-spacing="1">BITCOIN FILMFEST</text>
    <text x="300" y="194" font-size="19" letter-spacing="6">2026 · WARSAW</text>
  </g>
</svg>
